<svg width="24" height="24" viewBox="0 0 100 100" xmlns="http://www.w3.org/2000/svg">
  <!-- Dinosaur body -->
  <ellipse cx="50" cy="65" rx="25" ry="20" fill="#7FB069" stroke="#2D5016" stroke-width="2"/>
  
  <!-- Dinosaur head -->
  <ellipse cx="50" cy="35" rx="20" ry="18" fill="#7FB069" stroke="#2D5016" stroke-width="2"/>
  
  <!-- Spikes on back -->
  <polygon points="35,50 40,35 45,50" fill="#D4A574" stroke="#2D5016" stroke-width="1"/>
  <polygon points="45,48 50,33 55,48" fill="#D4A574" stroke="#2D5016" stroke-width="1"/>
  <polygon points="55,50 60,35 65,50" fill="#D4A574" stroke="#2D5016" stroke-width="1"/>
  
  <!-- Tail -->
  <ellipse cx="75" cy="70" rx="8" ry="12" fill="#7FB069" stroke="#2D5016" stroke-width="2"/>
  <polygon points="80,65 85,60 83,70" fill="#D4A574" stroke="#2D5016" stroke-width="1"/>
  
  <!-- Inner face (lighter area) -->
  <ellipse cx="50" cy="40" rx="12" ry="10" fill="#F5F5DC" stroke="#2D5016" stroke-width="1"/>
  
  <!-- Eyes -->
  <circle cx="45" cy="35" r="3" fill="#000"/>
  <circle cx="55" cy="35" r="3" fill="#000"/>
  <circle cx="46" cy="34" r="1" fill="#FFF"/>
  <circle cx="56" cy="34" r="1" fill="#FFF"/>
  
  <!-- Nostrils -->
  <circle cx="48" cy="28" r="1" fill="#2D5016"/>
  <circle cx="52" cy="28" r="1" fill="#2D5016"/>
  
  <!-- Smile -->
  <path d="M 45 45 Q 50 48 55 45" stroke="#2D5016" stroke-width="1.5" fill="none"/>
  
  <!-- Arms -->
  <ellipse cx="35" cy="55" rx="5" ry="8" fill="#7FB069" stroke="#2D5016" stroke-width="1"/>
  <ellipse cx="65" cy="55" rx="5" ry="8" fill="#7FB069" stroke="#2D5016" stroke-width="1"/>
  
  <!-- Legs -->
  <ellipse cx="42" cy="80" rx="6" ry="8" fill="#7FB069" stroke="#2D5016" stroke-width="1"/>
  <ellipse cx="58" cy="80" rx="6" ry="8" fill="#7FB069" stroke="#2D5016" stroke-width="1"/>
</svg>
