<svg width="750" height="600" viewBox="0 0 750 600" xmlns="http://www.w3.org/2000/svg">
  <!-- Cream background like your image -->
  <rect width="750" height="600" fill="#F5F0E8"/>
  
  <!-- Main character (scaled up to fill grid) -->
  <g transform="translate(375,300) scale(3.5)">
    
    <!-- Dinosaur costume body -->
    <ellipse cx="0" cy="20" rx="60" ry="45" fill="#8FBC8F" stroke="#2F4F2F" stroke-width="4"/>
    
    <!-- Dinosaur head/hood -->
    <ellipse cx="0" cy="-35" rx="50" ry="45" fill="#8FBC8F" stroke="#2F4F2F" stroke-width="4"/>
    
    <!-- Orange spikes on back of hood -->
    <polygon points="-35,-50 -25,-75 -15,-50" fill="#FF8C00" stroke="#2F4F2F" stroke-width="3"/>
    <polygon points="-10,-52 0,-77 10,-52" fill="#FF8C00" stroke="#2F4F2F" stroke-width="3"/>
    <polygon points="15,-50 25,-75 35,-50" fill="#FF8C00" stroke="#2F4F2F" stroke-width="3"/>
    
    <!-- Spikes on back of body -->
    <polygon points="-30,0 -20,-25 -10,0" fill="#FF8C00" stroke="#2F4F2F" stroke-width="3"/>
    <polygon points="-5,-2 5,-27 15,-2" fill="#FF8C00" stroke="#2F4F2F" stroke-width="3"/>
    <polygon points="20,0 30,-25 40,0" fill="#FF8C00" stroke="#2F4F2F" stroke-width="3"/>
    
    <!-- Tail -->
    <ellipse cx="65" cy="25" rx="20" ry="35" fill="#8FBC8F" stroke="#2F4F2F" stroke-width="4"/>
    <polygon points="80,15 95,10 90,35" fill="#FF8C00" stroke="#2F4F2F" stroke-width="3"/>
    
    <!-- Person's face inside the hood (cream colored) -->
    <ellipse cx="0" cy="-30" rx="30" ry="25" fill="#FFEFD5" stroke="#2F4F2F" stroke-width="3"/>
    
    <!-- Eyes (simple black dots like your image) -->
    <circle cx="-12" cy="-35" r="4" fill="#000"/>
    <circle cx="12" cy="-35" r="4" fill="#000"/>
    <circle cx="-11" cy="-37" r="1.5" fill="#FFF"/>
    <circle cx="13" cy="-37" r="1.5" fill="#FFF"/>
    
    <!-- Simple smile -->
    <path d="M -8 -20 Q 0 -15 8 -20" stroke="#2F4F2F" stroke-width="2.5" fill="none"/>
    
    <!-- Dinosaur nostrils on the hood -->
    <circle cx="-8" cy="-55" r="2" fill="#2F4F2F"/>
    <circle cx="8" cy="-55" r="2" fill="#2F4F2F"/>
    
    <!-- Arms sticking out of costume -->
    <ellipse cx="-50" cy="10" rx="12" ry="25" fill="#8FBC8F" stroke="#2F4F2F" stroke-width="3"/>
    <ellipse cx="50" cy="10" rx="12" ry="25" fill="#8FBC8F" stroke="#2F4F2F" stroke-width="3"/>
    
    <!-- Legs -->
    <ellipse cx="-25" cy="65" rx="15" ry="25" fill="#8FBC8F" stroke="#2F4F2F" stroke-width="3"/>
    <ellipse cx="25" cy="65" rx="15" ry="25" fill="#8FBC8F" stroke="#2F4F2F" stroke-width="3"/>
    
    <!-- Feet -->
    <ellipse cx="-25" cy="90" rx="18" ry="12" fill="#8FBC8F" stroke="#2F4F2F" stroke-width="3"/>
    <ellipse cx="25" cy="90" rx="18" ry="12" fill="#8FBC8F" stroke="#2F4F2F" stroke-width="3"/>
    
  </g>
</svg>
